<?xml version="1.0" encoding="utf-8"?>
<!-- Generator: Adobe Illustrator 23.0.0, SVG Export Plug-In . SVG Version: 6.00 Build 0)  -->
<svg version="1.1" id="Layer_1" xmlns="http://www.w3.org/2000/svg" xmlns:xlink="http://www.w3.org/1999/xlink" x="0px" y="0px"
	 viewBox="0 0 1141.7 646.5" style="enable-background:new 0 0 1141.7 646.5;" xml:space="preserve">
<style type="text/css">
	.st0{display:none;}
	.st1{display:inline;fill:#2392CF;}
	.st2{font-family:'FranklinGothic-Medium';}
	.st3{font-size:201.2474px;}
	.st4{display:inline;fill:#0C2D54;}
	.st5{display:inline;fill:#4C4C4C;}
	.st6{font-family:'ArialMT';}
	.st7{font-size:49.7193px;}
	.st8{display:inline;}
	.st9{fill:#0C2D54;}
	.st10{fill:#2392CF;}
	.st11{fill:#D3D3D3;}
	.st12{fill:#FFFFFF;}
</style>
<g id="Editable" class="st0">
	<text transform="matrix(0.9969 0 0 1 390.7656 360.2661)" class="st1 st2 st3">SKY</text>
	<text transform="matrix(0.9969 0 0 1 738.3311 360.2661)" class="st4 st2 st3">SILK</text>
	<text transform="matrix(0.9969 0 0 1 299.813 415.8638)" class="st5 st6 st7">MANAGED CLOUD SERVICES</text>
	<g class="st8">
		<path class="st9" d="M170.3,145.2c8.4-0.7,16.9-1,25.4-0.7c12,0.5,24,2.4,35.2,6.9c6.2,2.7,12.5,5.3,18.2,8.9
			c19.1,11.7,33.6,30,42.9,50.5c17.6-1.5,35.9,2.4,51,12c6,3.7,11.2,8.5,15.9,13.8c11,11.5,16.8,27.5,17.8,43.3
			c0.5,7.3,0,14.7-1.5,21.9c-3.3,15.9-12.1,30.3-23.9,41.2c-13.1,12-29.9,19.9-47.6,21.3c1-9.4,2.6-18.8,4.6-28.1
			c7.3-3,14.7-5.9,21.2-10.5c3.5-2.4,6.7-5.3,9.2-8.8c1.8-2.6,3.7-5.3,5.1-8.1c6.7-13.3,7.5-29.7,1.6-43.5
			c-3.1-7.3-8.3-13.7-14.9-18c-6.6-4.9-14.6-7.4-22.7-8.2c-12.3-1.3-24.6,0.7-37,0.6c-2.7-11.9-6.6-23.6-13.1-33.9
			c-3.6-5.6-7.9-10.8-13.1-15c-4.7-3.8-9.7-7.3-15.2-9.9c-15.3-7.5-32.8-9.3-49.6-8.1c-24.3-0.3-47.8,15-58.4,37.1
			c-2.7,5.7-4.5,11.8-5.3,18c-0.6,10.6-1.4,21.5,1.3,31.9c1.8,6.9,4.7,13.5,8.7,19.4c8.7,12.6,21.8,21.6,35.9,27.2
			c1.7-1.1,3.2-2.5,5-3.4c10.7-6.4,24.9-5.9,35.1,1.3c7.6,5.2,12.9,14,13.4,23.3c0.8,9.9-3.6,19.9-11.2,26c-8.2,6.9-19.8,9.1-30,6.1
			c-10.1-2.8-18.6-11-21.6-21.2c-0.7-2.3-1-4.7-1.3-7.1c-5.4-2.6-11.1-4.7-16.3-7.8c-10.1-5.8-19.2-13.5-26.7-22.5
			c-9.7-11.8-16.7-26.1-19.3-41.3c-1.2-6.4-1.2-12.9-1.4-19.4c0-11.1,1-22.3,4.8-32.8c2.3-6.1,5-12.1,8.4-17.7
			C116,165.5,142.3,148.8,170.3,145.2z M180,318.2c-4.6,1.2-8.2,5.8-8.1,10.6c-0.1,3.7,1.8,7.3,4.7,9.4c3.7,2.7,8.9,2.8,12.7,0.2
			c2.7-1.7,4.6-4.8,5-8c0.6-4.1-1.4-8.3-4.7-10.6C186.8,317.8,183.2,317.3,180,318.2z"/>
	</g>
	<g class="st8">
		<g>
			<g>
				<path class="st10" d="M12.4,257.6c12.2-25.4,38.1-43.6,65.9-45.9c-1.1,9.4-2.7,18.8-4.7,28.1c-7.1,2.9-14.3,5.8-20.7,10.1
					c-4.3,2.9-8.2,6.6-11,11c-7.2,9.9-10.3,22.5-9.2,34.7c0.8,8.7,3.8,17.3,9.1,24.2c3.7,4.9,8.7,8.6,14,11.7c9.1,5,19.7,6,29.8,5.7
					c8.5-0.1,17-1.1,25.5-1c3,13.6,7.8,27,16.1,38.3c3.9,5.2,8.4,9.8,13.7,13.5c9.2,7.1,20.1,11.6,31.4,13.7
					c8.4,1.7,16.9,2.1,25.4,1.8c3.1-0.3,6.2-0.2,9.2-0.4c16.5-1.2,32.3-9.5,43.4-21.9c8.8-9.9,14.9-22.6,15.6-36.1
					c0.4-8.6,0.9-17.3-0.8-25.9c-1.9-9.3-5.8-18.1-11.6-25.6c-8.3-10.6-19.8-18.4-32-23.5c-3.6,2.5-7.6,4.6-11.9,5.6
					c-11.8,3-25.1-1.1-32.9-10.7c-3.9-4.7-6.4-10.7-7-16.9c-0.6-6.9,1.1-14,4.9-19.7c6.3-9.7,18-15.2,29.3-14.3
					c6.9,0.4,13.6,3.1,18.8,7.7c6.9,5.8,11.1,14.9,10.9,24c3.4,1.7,7,3.1,10.3,4.9c18,9.6,33,25,41.7,43.7
					c4.1,8.8,6.8,18.3,7.7,28.1c0.5,7.4,0.7,14.8,0.2,22.3c-0.5,9.5-2.4,19.1-6.2,27.8c-8.4,21.2-25.1,38.5-45.2,48.6
					c-11.9,5.9-25,9.7-38.3,10c-8.9,0.4-17.8,0.5-26.6-0.4c-10.7-1.1-21.4-3.7-31.1-8.4c-20.2-8.2-37-23.8-48.4-42.4
					c-3-4.8-5.6-9.8-7.9-14.9c-19.1,1.5-38.9-3.1-54.6-14.5c-4.2-3.1-8.1-6.6-11.5-10.5c-11.2-11.2-17.2-26.8-18.4-42.5
					C4.2,284.1,6.3,270,12.4,257.6z M199.9,233.8c-3.3,0.4-6.3,2.3-8,5.1c-2,3.1-2.3,7.3-0.7,10.7c1.4,3.2,4.4,5.6,7.7,6.3
					c3.2,0.8,6.7,0,9.4-2c2.7-2.1,4.5-5.5,4.3-9c0.1-3.1-1.3-6.1-3.6-8.2C206.6,234.4,203.1,233.3,199.9,233.8z"/>
			</g>
		</g>
	</g>
</g>
<g id="Full_Color">
	<g>
		<path class="st11" d="M496.6,255.6l-26.6,8.9c-3.6-10.6-11.2-15.9-22.8-15.9c-12.4,0-18.6,4-18.6,12.1c0,3.2,1.2,5.9,3.5,8.2
			c2.3,2.2,7.5,4.2,15.7,5.8c13.6,2.8,23.6,5.5,29.9,8.4c6.3,2.8,11.7,7.4,16,13.6c4.3,6.3,6.5,13.2,6.5,21
			c0,12.1-4.6,22.6-13.9,31.4s-23.1,13.3-41.4,13.3c-13.7,0-25.4-3.1-35-9.4s-16-15.5-19-27.9l29-6.6c3.3,12.5,12.3,18.8,27.2,18.8
			c7.2,0,12.5-1.4,16-4.2c3.5-2.8,5.3-6.1,5.3-10s-1.6-7-4.8-9.1c-3.2-2.2-9.4-4.2-18.5-6.1c-17-3.5-29.2-8.4-36.4-14.5
			s-10.9-15.1-10.9-26.9c0-11.9,4.3-22,13-30.2c8.6-8.2,20.4-12.3,35.2-12.3C472.2,224.1,489.1,234.6,496.6,255.6z"/>
		<path class="st11" d="M551.4,226.1v63l41.9-63h30L591.2,274l40.1,86.2h-34.5L570.2,302l-18.8,27.5v30.8h-30.8V226.1H551.4z"/>
		<path class="st11" d="M743.6,226.1l-42,77.6v56.5h-31.2v-56.5l-42-77.6h36.3l25.5,50.8l25.4-50.8L743.6,226.1L743.6,226.1z"/>
		<path class="st11" d="M843.1,255.6l-26.6,8.9c-3.6-10.6-11.2-15.9-22.8-15.9c-12.4,0-18.6,4-18.6,12.1c0,3.2,1.2,5.9,3.5,8.2
			c2.3,2.2,7.5,4.2,15.7,5.8c13.6,2.8,23.6,5.5,29.9,8.4c6.3,2.8,11.7,7.4,16,13.6s6.5,13.2,6.5,21c0,12.1-4.7,22.6-13.9,31.4
			c-9.3,8.8-23.1,13.3-41.3,13.3c-13.7,0-25.4-3.1-35-9.4s-16-15.5-19-27.9l29-6.6c3.3,12.5,12.3,18.8,27.2,18.8
			c7.2,0,12.5-1.4,16-4.2c3.5-2.8,5.3-6.1,5.3-10s-1.6-7-4.8-9.1c-3.2-2.2-9.4-4.2-18.5-6.1c-17-3.5-29.2-8.4-36.4-14.5
			s-10.9-15.1-10.9-26.9c0-11.9,4.3-22,13-30.2c8.6-8.2,20.4-12.3,35.2-12.3C818.8,224.1,835.6,234.6,843.1,255.6z"/>
		<path class="st11" d="M898.5,226.1v134.1h-31.2V226.1H898.5z"/>
		<path class="st11" d="M957,333.7h53.2v26.5h-84.9V226.1H957V333.7L957,333.7z"/>
		<path class="st11" d="M1057.1,226.1v63l41.9-63h30l-32.1,47.9l40.1,86.2h-34.5l-26.7-58.2l-18.8,27.5v30.8h-30.8V226.1H1057.1z"/>
	</g>
	<path class="st11" d="M338.2,410.1c-3.5,3.5-8.9,6.8-16,6.8c-10.7,0-17.7-7.7-17.7-17.3c0-9.4,7.1-17.2,17.4-17.2
		c5.9,0,11.5,2.3,15.2,5.7l-3.8,3.7c-2.9-2.7-7.3-4.5-11.3-4.5c-7.1,0-11.7,5.6-11.7,12.3c0,6.8,4.7,12.2,11.9,12.2
		c5.1,0,9.4-2.5,12.1-5.5L338.2,410.1z"/>
	<path class="st11" d="M374.9,383.4v27.5h19.9v5h-25.4v-32.5H374.9z"/>
	<path class="st11" d="M442.9,382.4c10.2,0,18.3,7.7,18.3,17.2c0,9.6-8.1,17.3-18.3,17.3s-18.2-7.7-18.2-17.3
		C424.7,390.1,432.7,382.4,442.9,382.4z M442.9,411.9c7,0,12.5-5.6,12.5-12.3c0-6.7-5.5-12.2-12.5-12.2c-6.9,0-12.3,5.5-12.3,12.2
		C430.6,406.3,436,411.9,442.9,411.9z"/>
	<path class="st11" d="M522.2,383.4v20.9c0,8-6.1,12.5-14.4,12.5c-8.2,0-14.3-4.5-14.3-12.5v-20.9h5.6v20.9c0,4.9,3.9,7.6,8.8,7.6
		c5,0,8.8-2.7,8.8-7.6v-20.9H522.2z"/>
	<path class="st11" d="M558.5,415.9v-32.5H574c5.8,0,9.1,1.6,11.9,4.3c2.9,3,4.4,7.2,4.4,11.9c0,4.9-1.7,9.3-4.8,12.3
		c-2.8,2.5-5.7,4-11.5,4L558.5,415.9L558.5,415.9z M573.7,410.9c4.1,0,5.5-0.9,7.4-2.5c2.1-2.1,3.3-5.3,3.3-8.7
		c0-3.4-1.1-6.4-3.1-8.5c-1.8-1.7-3.6-2.7-7.6-2.7H564V411L573.7,410.9L573.7,410.9z"/>
	<path class="st11" d="M685.2,391c-1.8-1.6-5.8-3.8-11.7-3.8c-3.9,0-7.3,1.2-7.3,4.7s4.8,3.7,9.7,4c5.8,0.4,14.9,1,14.9,10
		c0,7.9-6.5,10.9-14.3,10.9c-8.5,0-14.1-3.5-17.7-6.8l3.4-3.9c2.6,2.4,7.2,5.9,14.4,5.9c4.8,0,8.6-1.6,8.6-5.3
		c0-4.1-3.7-4.9-9.4-5.4c-7.1-0.5-15.3-1.1-15.3-8.9c0-7.7,7.1-10,13-10c6.8,0,12.3,2.7,14.9,4.7L685.2,391z"/>
	<path class="st11" d="M746.5,401.4H734v9.5h21.9v5h-27.5v-32.5h26.3v5H734v8.1h12.4L746.5,401.4L746.5,401.4z"/>
	<path class="st11" d="M794.5,415.9v-32.5h17.8c4.3,0,7.3,1.2,9.4,3.4c1.6,1.7,2.6,4,2.6,6.5c0,4.4-2.9,7.7-7.1,9.3l7.7,13.2h-6.4
		l-6.9-12.5h-11.5v12.5L794.5,415.9L794.5,415.9z M800.1,388.4v10h13.3c2.9,0,5.4-2.3,5.4-5.1c0-1.2-0.5-2.3-1.3-3.2
		c-1.5-1.6-3.3-1.7-5.1-1.7L800.1,388.4L800.1,388.4z"/>
	<path class="st11" d="M894.6,383.4l-15,32.5h-5.1l-15-32.5h6.3l11.2,25.4h0.3l11.2-25.4H894.6z"/>
	<path class="st11" d="M934,415.9v-32.5h5.6v32.5H934z"/>
	<path class="st11" d="M1012.2,410.1c-3.5,3.5-8.9,6.8-16,6.8c-10.7,0-17.7-7.7-17.7-17.3c0-9.4,7.1-17.2,17.4-17.2
		c5.9,0,11.5,2.3,15.2,5.7l-3.8,3.7c-2.9-2.7-7.3-4.5-11.3-4.5c-7.1,0-11.7,5.6-11.7,12.3c0,6.8,4.7,12.2,11.9,12.2
		c5.1,0,9.4-2.5,12.1-5.5L1012.2,410.1z"/>
	<path class="st11" d="M1065.2,401.4h-12.4v9.5h21.9v5h-27.5v-32.5h26.3v5h-20.7v8.1h12.4L1065.2,401.4L1065.2,401.4z"/>
	<path class="st11" d="M1131.2,391c-1.8-1.6-5.8-3.8-11.7-3.8c-3.9,0-7.3,1.2-7.3,4.7s4.8,3.7,9.7,4c5.8,0.4,14.9,1,14.9,10
		c0,7.9-6.5,10.9-14.3,10.9c-8.5,0-14.1-3.5-17.7-6.8l3.4-3.9c2.6,2.4,7.2,5.9,14.4,5.9c4.8,0,8.6-1.6,8.6-5.3
		c0-4.1-3.7-4.9-9.4-5.4c-7.1-0.5-15.3-1.1-15.3-8.9c0-7.7,7.1-10,13-10c6.8,0,12.3,2.7,14.9,4.7L1131.2,391z"/>
	<g>
		<path class="st11" d="M170.3,145.2c8.4-0.7,16.9-1,25.4-0.7c12,0.5,24,2.4,35.2,6.9c6.2,2.7,12.5,5.3,18.2,8.9
			c19.1,11.7,33.6,30,42.9,50.5c17.6-1.5,35.9,2.4,51,12c6,3.7,11.2,8.5,15.9,13.8c11,11.5,16.8,27.5,17.8,43.3
			c0.5,7.3,0,14.7-1.5,21.9c-3.3,15.9-12.1,30.3-23.9,41.2c-13.1,12-29.9,19.9-47.6,21.3c1-9.4,2.6-18.8,4.6-28.1
			c7.3-3,14.7-5.9,21.2-10.5c3.5-2.4,6.7-5.3,9.2-8.8c1.8-2.6,3.7-5.3,5.1-8.1c6.7-13.3,7.5-29.7,1.6-43.5
			c-3.1-7.3-8.3-13.7-14.9-18c-6.6-4.9-14.6-7.4-22.7-8.2c-12.3-1.3-24.6,0.7-37,0.6c-2.7-11.9-6.6-23.6-13.1-33.9
			c-3.6-5.6-7.9-10.8-13.1-15c-4.7-3.8-9.7-7.3-15.2-9.9c-15.3-7.5-32.8-9.3-49.6-8.1c-24.3-0.3-47.8,15-58.4,37.1
			c-2.7,5.7-4.5,11.8-5.3,18c-0.6,10.6-1.4,21.5,1.3,31.9c1.8,6.9,4.7,13.5,8.7,19.4c8.7,12.6,21.8,21.6,35.9,27.2
			c1.7-1.1,3.2-2.5,5-3.4c10.7-6.4,24.9-5.9,35.1,1.3c7.6,5.2,12.9,14,13.4,23.3c0.8,9.9-3.6,19.9-11.2,26c-8.2,6.9-19.8,9.1-30,6.1
			c-10.1-2.8-18.6-11-21.6-21.2c-0.7-2.3-1-4.7-1.3-7.1c-5.4-2.6-11.1-4.7-16.3-7.8c-10.1-5.8-19.2-13.5-26.7-22.5
			c-9.7-11.8-16.7-26.1-19.3-41.3c-1.2-6.4-1.2-12.9-1.4-19.4c0-11.1,1-22.3,4.8-32.8c2.3-6.1,5-12.1,8.4-17.7
			C116,165.5,142.3,148.8,170.3,145.2z M180,318.2c-4.6,1.2-8.2,5.8-8.1,10.6c-0.1,3.7,1.8,7.3,4.7,9.4c3.7,2.7,8.9,2.8,12.7,0.2
			c2.7-1.7,4.6-4.8,5-8c0.6-4.1-1.4-8.3-4.7-10.6C186.8,317.8,183.2,317.3,180,318.2z"/>
	</g>
	<g>
		<g>
			<g>
				<path class="st11" d="M12.4,257.6c12.2-25.4,38.1-43.6,65.9-45.9c-1.1,9.4-2.7,18.8-4.7,28.1c-7.1,2.9-14.3,5.8-20.7,10.1
					c-4.3,2.9-8.2,6.6-11,11c-7.2,9.9-10.3,22.5-9.2,34.7c0.8,8.7,3.8,17.3,9.1,24.2c3.7,4.9,8.7,8.6,14,11.7c9.1,5,19.7,6,29.8,5.7
					c8.5-0.1,17-1.1,25.5-1c3,13.6,7.8,27,16.1,38.3c3.9,5.2,8.4,9.8,13.7,13.5c9.2,7.1,20.1,11.6,31.4,13.7
					c8.4,1.7,16.9,2.1,25.4,1.8c3.1-0.3,6.2-0.2,9.2-0.4c16.5-1.2,32.3-9.5,43.4-21.9c8.8-9.9,14.9-22.6,15.6-36.1
					c0.4-8.6,0.9-17.3-0.8-25.9c-1.9-9.3-5.8-18.1-11.6-25.6c-8.3-10.6-19.8-18.4-32-23.5c-3.6,2.5-7.6,4.6-11.9,5.6
					c-11.8,3-25.1-1.1-32.9-10.7c-3.9-4.7-6.4-10.7-7-16.9c-0.6-6.9,1.1-14,4.9-19.7c6.3-9.7,18-15.2,29.3-14.3
					c6.9,0.4,13.6,3.1,18.8,7.7c6.9,5.8,11.1,14.9,10.9,24c3.4,1.7,7,3.1,10.3,4.9c18,9.6,33,25,41.7,43.7
					c4.1,8.8,6.8,18.3,7.7,28.1c0.5,7.4,0.7,14.8,0.2,22.3c-0.5,9.5-2.4,19.1-6.2,27.8c-8.4,21.2-25.1,38.5-45.2,48.6
					c-11.9,5.9-25,9.7-38.3,10c-8.9,0.4-17.8,0.5-26.6-0.4c-10.7-1.1-21.4-3.7-31.1-8.4c-20.2-8.2-37-23.8-48.4-42.4
					c-3-4.8-5.6-9.8-7.9-14.9c-19.1,1.5-38.9-3.1-54.6-14.5c-4.2-3.1-8.1-6.6-11.5-10.5c-11.2-11.2-17.2-26.8-18.4-42.5
					C4.2,284.1,6.3,270,12.4,257.6z M199.9,233.8c-3.3,0.4-6.3,2.3-8,5.1c-2,3.1-2.3,7.3-0.7,10.7c1.4,3.2,4.4,5.6,7.7,6.3
					c3.2,0.8,6.7,0,9.4-2c2.7-2.1,4.5-5.5,4.3-9c0.1-3.1-1.3-6.1-3.6-8.2C206.6,234.4,203.1,233.3,199.9,233.8z"/>
			</g>
		</g>
	</g>
</g>
<g id="White" class="st0">
	<g class="st8">
		<path class="st12" d="M496.6,255.6l-26.6,8.9c-3.6-10.6-11.2-15.9-22.8-15.9c-12.4,0-18.6,4-18.6,12.1c0,3.2,1.2,5.9,3.5,8.2
			c2.3,2.2,7.5,4.2,15.7,5.8c13.6,2.8,23.6,5.5,29.9,8.4c6.3,2.8,11.7,7.4,16,13.6c4.3,6.3,6.5,13.2,6.5,21
			c0,12.1-4.6,22.6-13.9,31.4s-23.1,13.3-41.4,13.3c-13.7,0-25.4-3.1-35-9.4s-16-15.5-19-27.9l29-6.6c3.3,12.5,12.3,18.8,27.2,18.8
			c7.2,0,12.5-1.4,16-4.2c3.5-2.8,5.3-6.1,5.3-10s-1.6-7-4.8-9.1c-3.2-2.2-9.4-4.2-18.5-6.1c-17-3.5-29.2-8.4-36.4-14.5
			s-10.9-15.1-10.9-26.9c0-11.9,4.3-22,13-30.2c8.6-8.2,20.4-12.3,35.2-12.3C472.2,224.1,489.1,234.6,496.6,255.6z"/>
		<path class="st12" d="M551.4,226.1v63l41.9-63h30L591.2,274l40.1,86.2h-34.5L570.2,302l-18.8,27.5v30.8h-30.8V226.1H551.4z"/>
		<path class="st12" d="M743.6,226.1l-42,77.6v56.5h-31.2v-56.5l-42-77.6h36.3l25.5,50.8l25.4-50.8L743.6,226.1L743.6,226.1z"/>
		<path class="st12" d="M843.1,255.6l-26.6,8.9c-3.6-10.6-11.2-15.9-22.8-15.9c-12.4,0-18.6,4-18.6,12.1c0,3.2,1.2,5.9,3.5,8.2
			c2.3,2.2,7.5,4.2,15.7,5.8c13.6,2.8,23.6,5.5,29.9,8.4c6.3,2.8,11.7,7.4,16,13.6s6.5,13.2,6.5,21c0,12.1-4.7,22.6-13.9,31.4
			c-9.3,8.8-23.1,13.3-41.3,13.3c-13.7,0-25.4-3.1-35-9.4s-16-15.5-19-27.9l29-6.6c3.3,12.5,12.3,18.8,27.2,18.8
			c7.2,0,12.5-1.4,16-4.2c3.5-2.8,5.3-6.1,5.3-10s-1.6-7-4.8-9.1c-3.2-2.2-9.4-4.2-18.5-6.1c-17-3.5-29.2-8.4-36.4-14.5
			s-10.9-15.1-10.9-26.9c0-11.9,4.3-22,13-30.2c8.6-8.2,20.4-12.3,35.2-12.3C818.8,224.1,835.6,234.6,843.1,255.6z"/>
		<path class="st12" d="M898.5,226.1v134.1h-31.2V226.1H898.5z"/>
		<path class="st12" d="M957,333.7h53.2v26.5h-84.9V226.1H957V333.7L957,333.7z"/>
		<path class="st12" d="M1057.1,226.1v63l41.9-63h30l-32.1,47.9l40.1,86.2h-34.5l-26.7-58.2l-18.8,27.5v30.8h-30.8V226.1H1057.1z"/>
	</g>
	<g class="st8">
		<path class="st12" d="M333.6,415.9v-22.1h-0.2L322.6,412h-0.9L311,393.8h-0.2v22.1h-5.3v-32.5h5.7l11.3,19.1h0.1l11.3-19.1h5.5
			v32.5H333.6z"/>
		<path class="st12" d="M364.6,383.4h5.1l15,32.5h-6.1l-3.9-8.8h-15.4l-3.9,8.8h-5.8L364.6,383.4z M361.3,402.6h11.4l-5.6-12.6h-0.3
			L361.3,402.6z"/>
		<path class="st12" d="M424.4,383.4v32.5h-4.9l-18.7-22.5l0,0v22.5h-5.6v-32.5h4.9l18.7,22.5l0,0v-22.5H424.4z"/>
		<path class="st12" d="M449.8,383.4h5.1l15,32.5h-6.1l-3.9-8.8h-15.4l-3.9,8.8h-5.8L449.8,383.4z M446.5,402.6h11.4l-5.6-12.6H452
			L446.5,402.6z"/>
		<path class="st12" d="M505.9,391.8c-2.7-2.7-7.3-4.4-11.2-4.4c-7,0-11.9,5.6-11.9,12.3c0,6.3,4.3,12.2,12.4,12.2
			c3.4,0,7.3-1,9.5-2.6v-6.5h-10.2v-5h15.2V412c-4.1,3-9.8,4.9-14.9,4.9c-10.3,0-17.9-7.7-17.9-17.3s7.7-17.2,17.6-17.2
			c5.2,0,10.7,2.1,15.1,5.9L505.9,391.8z"/>
		<path class="st12" d="M541.5,401.4H529v9.5h21.9v5h-27.5v-32.5h26.3v5H529v8.1h12.4L541.5,401.4L541.5,401.4z"/>
		<path class="st12" d="M562.5,415.9v-32.5H578c5.8,0,9.1,1.6,11.9,4.3c2.9,3,4.4,7.2,4.4,11.9c0,4.9-1.7,9.3-4.8,12.3
			c-2.8,2.5-5.7,4-11.5,4L562.5,415.9L562.5,415.9z M577.8,410.9c4.1,0,5.5-0.9,7.4-2.5c2.1-2.1,3.3-5.3,3.3-8.7
			c0-3.4-1.1-6.4-3.1-8.5c-1.8-1.7-3.6-2.7-7.6-2.7h-9.7V411L577.8,410.9L577.8,410.9z"/>
		<path class="st12" d="M652.2,410.1c-3.5,3.5-8.9,6.8-16,6.8c-10.7,0-17.7-7.7-17.7-17.3c0-9.4,7.1-17.2,17.4-17.2
			c5.9,0,11.5,2.3,15.2,5.7l-3.8,3.7c-2.9-2.7-7.3-4.5-11.3-4.5c-7.1,0-11.7,5.6-11.7,12.3c0,6.8,4.7,12.2,11.9,12.2
			c5.1,0,9.4-2.5,12.1-5.5L652.2,410.1z"/>
		<path class="st12" d="M668.9,383.4v27.5h19.9v5h-25.4v-32.5H668.9z"/>
		<path class="st12" d="M713.9,382.4c10.2,0,18.3,7.7,18.3,17.2c0,9.6-8.1,17.3-18.3,17.3s-18.2-7.7-18.2-17.3
			C695.7,390.1,703.7,382.4,713.9,382.4z M713.9,411.9c7,0,12.5-5.6,12.5-12.3c0-6.7-5.5-12.2-12.5-12.2c-6.9,0-12.3,5.5-12.3,12.2
			C701.6,406.3,707,411.9,713.9,411.9z"/>
		<path class="st12" d="M772.2,383.4v20.9c0,8-6.1,12.5-14.4,12.5c-8.2,0-14.3-4.5-14.3-12.5v-20.9h5.6v20.9c0,4.9,3.9,7.6,8.8,7.6
			c5,0,8.8-2.7,8.8-7.6v-20.9H772.2z"/>
		<path class="st12" d="M786.5,415.9v-32.5H802c5.8,0,9.1,1.6,11.9,4.3c2.9,3,4.4,7.2,4.4,11.9c0,4.9-1.7,9.3-4.8,12.3
			c-2.8,2.5-5.7,4-11.5,4L786.5,415.9L786.5,415.9z M801.7,410.9c4.1,0,5.5-0.9,7.4-2.5c2.1-2.1,3.3-5.3,3.3-8.7
			c0-3.4-1.1-6.4-3.1-8.5c-1.8-1.7-3.6-2.7-7.6-2.7H792V411L801.7,410.9L801.7,410.9z"/>
		<path class="st12" d="M868.2,391c-1.8-1.6-5.8-3.8-11.7-3.8c-3.9,0-7.3,1.2-7.3,4.7s4.8,3.7,9.7,4c5.8,0.4,14.9,1,14.9,10
			c0,7.9-6.5,10.9-14.3,10.9c-8.5,0-14.1-3.5-17.7-6.8l3.4-3.9c2.6,2.4,7.2,5.9,14.4,5.9c4.8,0,8.6-1.6,8.6-5.3
			c0-4.1-3.7-4.9-9.4-5.4c-7.1-0.5-15.3-1.1-15.3-8.9c0-7.7,7.1-10,13-10c6.8,0,12.3,2.7,14.9,4.7L868.2,391z"/>
		<path class="st12" d="M903.5,401.4H891v9.5h21.9v5h-27.5v-32.5h26.3v5H891v8.1h12.4L903.5,401.4L903.5,401.4z"/>
		<path class="st12" d="M924.5,415.9v-32.5h17.8c4.3,0,7.3,1.2,9.4,3.4c1.6,1.7,2.6,4,2.6,6.5c0,4.4-2.9,7.7-7.1,9.3l7.7,13.2h-6.4
			l-6.9-12.5h-11.5v12.5L924.5,415.9L924.5,415.9z M930.1,388.4v10h13.3c2.9,0,5.4-2.3,5.4-5.1c0-1.2-0.5-2.3-1.3-3.2
			c-1.5-1.6-3.3-1.7-5.1-1.7L930.1,388.4L930.1,388.4z"/>
		<path class="st12" d="M997.6,383.4l-15,32.5h-5.1l-15-32.5h6.3l11.2,25.4h0.3l11.2-25.4H997.6z"/>
		<path class="st12" d="M1008,415.9v-32.5h5.6v32.5H1008z"/>
		<path class="st12" d="M1059.2,410.1c-3.5,3.5-8.9,6.8-16,6.8c-10.7,0-17.7-7.7-17.7-17.3c0-9.4,7.1-17.2,17.4-17.2
			c5.9,0,11.5,2.3,15.2,5.7l-3.8,3.7c-2.9-2.7-7.3-4.5-11.3-4.5c-7.1,0-11.7,5.6-11.7,12.3c0,6.8,4.7,12.2,11.9,12.2
			c5.1,0,9.4-2.5,12.1-5.5L1059.2,410.1z"/>
		<path class="st12" d="M1088.2,401.4h-12.4v9.5h21.9v5h-27.5v-32.5h26.3v5h-20.7v8.1h12.4L1088.2,401.4L1088.2,401.4z"/>
		<path class="st12" d="M1132.2,391c-1.8-1.6-5.8-3.8-11.7-3.8c-3.9,0-7.3,1.2-7.3,4.7s4.8,3.7,9.7,4c5.8,0.4,14.9,1,14.9,10
			c0,7.9-6.5,10.9-14.3,10.9c-8.5,0-14.1-3.5-17.7-6.8l3.4-3.9c2.6,2.4,7.2,5.9,14.4,5.9c4.8,0,8.6-1.6,8.6-5.3
			c0-4.1-3.7-4.9-9.4-5.4c-7.1-0.5-15.3-1.1-15.3-8.9c0-7.7,7.1-10,13-10c6.8,0,12.3,2.7,14.9,4.7L1132.2,391z"/>
	</g>
	<g class="st8">
		<path class="st12" d="M170.3,145.2c8.4-0.7,16.9-1,25.4-0.7c12,0.5,24,2.4,35.2,6.9c6.2,2.7,12.5,5.3,18.2,8.9
			c19.1,11.7,33.6,30,42.9,50.5c17.6-1.5,35.9,2.4,51,12c6,3.7,11.2,8.5,15.9,13.8c11,11.5,16.8,27.5,17.8,43.3
			c0.5,7.3,0,14.7-1.5,21.9c-3.3,15.9-12.1,30.3-23.9,41.2c-13.1,12-29.9,19.9-47.6,21.3c1-9.4,2.6-18.8,4.6-28.1
			c7.3-3,14.7-5.9,21.2-10.5c3.5-2.4,6.7-5.3,9.2-8.8c1.8-2.6,3.7-5.3,5.1-8.1c6.7-13.3,7.5-29.7,1.6-43.5
			c-3.1-7.3-8.3-13.7-14.9-18c-6.6-4.9-14.6-7.4-22.7-8.2c-12.3-1.3-24.6,0.7-37,0.6c-2.7-11.9-6.6-23.6-13.1-33.9
			c-3.6-5.6-7.9-10.8-13.1-15c-4.7-3.8-9.7-7.3-15.2-9.9c-15.3-7.5-32.8-9.3-49.6-8.1c-24.3-0.3-47.8,15-58.4,37.1
			c-2.7,5.7-4.5,11.8-5.3,18c-0.6,10.6-1.4,21.5,1.3,31.9c1.8,6.9,4.7,13.5,8.7,19.4c8.7,12.6,21.8,21.6,35.9,27.2
			c1.7-1.1,3.2-2.5,5-3.4c10.7-6.4,24.9-5.9,35.1,1.3c7.6,5.2,12.9,14,13.4,23.3c0.8,9.9-3.6,19.9-11.2,26c-8.2,6.9-19.8,9.1-30,6.1
			c-10.1-2.8-18.6-11-21.6-21.2c-0.7-2.3-1-4.7-1.3-7.1c-5.4-2.6-11.1-4.7-16.3-7.8c-10.1-5.8-19.2-13.5-26.7-22.5
			c-9.7-11.8-16.7-26.1-19.3-41.3c-1.2-6.4-1.2-12.9-1.4-19.4c0-11.1,1-22.3,4.8-32.8c2.3-6.1,5-12.1,8.4-17.7
			C116,165.5,142.3,148.8,170.3,145.2z M180,318.2c-4.6,1.2-8.2,5.8-8.1,10.6c-0.1,3.7,1.8,7.3,4.7,9.4c3.7,2.7,8.9,2.8,12.7,0.2
			c2.7-1.7,4.6-4.8,5-8c0.6-4.1-1.4-8.3-4.7-10.6C186.8,317.8,183.2,317.3,180,318.2z"/>
	</g>
	<g class="st8">
		<g>
			<g>
				<path class="st12" d="M12.4,257.6c12.2-25.4,38.1-43.6,65.9-45.9c-1.1,9.4-2.7,18.8-4.7,28.1c-7.1,2.9-14.3,5.8-20.7,10.1
					c-4.3,2.9-8.2,6.6-11,11c-7.2,9.9-10.3,22.5-9.2,34.7c0.8,8.7,3.8,17.3,9.1,24.2c3.7,4.9,8.7,8.6,14,11.7c9.1,5,19.7,6,29.8,5.7
					c8.5-0.1,17-1.1,25.5-1c3,13.6,7.8,27,16.1,38.3c3.9,5.2,8.4,9.8,13.7,13.5c9.2,7.1,20.1,11.6,31.4,13.7
					c8.4,1.7,16.9,2.1,25.4,1.8c3.1-0.3,6.2-0.2,9.2-0.4c16.5-1.2,32.3-9.5,43.4-21.9c8.8-9.9,14.9-22.6,15.6-36.1
					c0.4-8.6,0.9-17.3-0.8-25.9c-1.9-9.3-5.8-18.1-11.6-25.6c-8.3-10.6-19.8-18.4-32-23.5c-3.6,2.5-7.6,4.6-11.9,5.6
					c-11.8,3-25.1-1.1-32.9-10.7c-3.9-4.7-6.4-10.7-7-16.9c-0.6-6.9,1.1-14,4.9-19.7c6.3-9.7,18-15.2,29.3-14.3
					c6.9,0.4,13.6,3.1,18.8,7.7c6.9,5.8,11.1,14.9,10.9,24c3.4,1.7,7,3.1,10.3,4.9c18,9.6,33,25,41.7,43.7
					c4.1,8.8,6.8,18.3,7.7,28.1c0.5,7.4,0.7,14.8,0.2,22.3c-0.5,9.5-2.4,19.1-6.2,27.8c-8.4,21.2-25.1,38.5-45.2,48.6
					c-11.9,5.9-25,9.7-38.3,10c-8.9,0.4-17.8,0.5-26.6-0.4c-10.7-1.1-21.4-3.7-31.1-8.4c-20.2-8.2-37-23.8-48.4-42.4
					c-3-4.8-5.6-9.8-7.9-14.9c-19.1,1.5-38.9-3.1-54.6-14.5c-4.2-3.1-8.1-6.6-11.5-10.5c-11.2-11.2-17.2-26.8-18.4-42.5
					C4.2,284.1,6.3,270,12.4,257.6z M199.9,233.8c-3.3,0.4-6.3,2.3-8,5.1c-2,3.1-2.3,7.3-0.7,10.7c1.4,3.2,4.4,5.6,7.7,6.3
					c3.2,0.8,6.7,0,9.4-2c2.7-2.1,4.5-5.5,4.3-9c0.1-3.1-1.3-6.1-3.6-8.2C206.6,234.4,203.1,233.3,199.9,233.8z"/>
			</g>
		</g>
	</g>
</g>
<g id="Black" class="st0">
	<g class="st8">
		<path d="M496.6,255.6l-26.6,8.9c-3.6-10.6-11.2-15.9-22.8-15.9c-12.4,0-18.6,4-18.6,12.1c0,3.2,1.2,5.9,3.5,8.2
			c2.3,2.2,7.5,4.2,15.7,5.8c13.6,2.8,23.6,5.5,29.9,8.4c6.3,2.8,11.7,7.4,16,13.6c4.3,6.3,6.5,13.2,6.5,21
			c0,12.1-4.6,22.6-13.9,31.4s-23.1,13.3-41.4,13.3c-13.7,0-25.4-3.1-35-9.4s-16-15.5-19-27.9l29-6.6c3.3,12.5,12.3,18.8,27.2,18.8
			c7.2,0,12.5-1.4,16-4.2c3.5-2.8,5.3-6.1,5.3-10s-1.6-7-4.8-9.1c-3.2-2.2-9.4-4.2-18.5-6.1c-17-3.5-29.2-8.4-36.4-14.5
			s-10.9-15.1-10.9-26.9c0-11.9,4.3-22,13-30.2c8.6-8.2,20.4-12.3,35.2-12.3C472.2,224.1,489.1,234.6,496.6,255.6z"/>
		<path d="M551.4,226.1v63l41.9-63h30L591.2,274l40.1,86.2h-34.5L570.2,302l-18.8,27.5v30.8h-30.8V226.1H551.4z"/>
		<path d="M743.6,226.1l-42,77.6v56.5h-31.2v-56.5l-42-77.6h36.3l25.5,50.8l25.4-50.8L743.6,226.1L743.6,226.1z"/>
		<path d="M843.1,255.6l-26.6,8.9c-3.6-10.6-11.2-15.9-22.8-15.9c-12.4,0-18.6,4-18.6,12.1c0,3.2,1.2,5.9,3.5,8.2
			c2.3,2.2,7.5,4.2,15.7,5.8c13.6,2.8,23.6,5.5,29.9,8.4c6.3,2.8,11.7,7.4,16,13.6s6.5,13.2,6.5,21c0,12.1-4.7,22.6-13.9,31.4
			c-9.3,8.8-23.1,13.3-41.3,13.3c-13.7,0-25.4-3.1-35-9.4s-16-15.5-19-27.9l29-6.6c3.3,12.5,12.3,18.8,27.2,18.8
			c7.2,0,12.5-1.4,16-4.2c3.5-2.8,5.3-6.1,5.3-10s-1.6-7-4.8-9.1c-3.2-2.2-9.4-4.2-18.5-6.1c-17-3.5-29.2-8.4-36.4-14.5
			s-10.9-15.1-10.9-26.9c0-11.9,4.3-22,13-30.2c8.6-8.2,20.4-12.3,35.2-12.3C818.8,224.1,835.6,234.6,843.1,255.6z"/>
		<path d="M898.5,226.1v134.1h-31.2V226.1H898.5z"/>
		<path d="M957,333.7h53.2v26.5h-84.9V226.1H957V333.7L957,333.7z"/>
		<path d="M1057.1,226.1v63l41.9-63h30l-32.1,47.9l40.1,86.2h-34.5l-26.7-58.2l-18.8,27.5v30.8h-30.8V226.1H1057.1z"/>
	</g>
	<g class="st8">
		<path d="M333.6,415.9v-22.1h-0.2L322.6,412h-0.9L311,393.8h-0.2v22.1h-5.3v-32.5h5.7l11.3,19.1h0.1l11.3-19.1h5.5v32.5H333.6z"/>
		<path d="M364.6,383.4h5.1l15,32.5h-6.1l-3.9-8.8h-15.4l-3.9,8.8h-5.8L364.6,383.4z M361.3,402.6h11.4l-5.6-12.6h-0.3L361.3,402.6z
			"/>
		<path d="M424.4,383.4v32.5h-4.9l-18.7-22.5l0,0v22.5h-5.6v-32.5h4.9l18.7,22.5l0,0v-22.5H424.4z"/>
		<path d="M449.8,383.4h5.1l15,32.5h-6.1l-3.9-8.8h-15.4l-3.9,8.8h-5.8L449.8,383.4z M446.5,402.6h11.4l-5.6-12.6H452L446.5,402.6z"
			/>
		<path d="M505.9,391.8c-2.7-2.7-7.3-4.4-11.2-4.4c-7,0-11.9,5.6-11.9,12.3c0,6.3,4.3,12.2,12.4,12.2c3.4,0,7.3-1,9.5-2.6v-6.5
			h-10.2v-5h15.2V412c-4.1,3-9.8,4.9-14.9,4.9c-10.3,0-17.9-7.7-17.9-17.3s7.7-17.2,17.6-17.2c5.2,0,10.7,2.1,15.1,5.9L505.9,391.8z
			"/>
		<path d="M541.5,401.4H529v9.5h21.9v5h-27.5v-32.5h26.3v5H529v8.1h12.4L541.5,401.4L541.5,401.4z"/>
		<path d="M562.5,415.9v-32.5H578c5.8,0,9.1,1.6,11.9,4.3c2.9,3,4.4,7.2,4.4,11.9c0,4.9-1.7,9.3-4.8,12.3c-2.8,2.5-5.7,4-11.5,4
			L562.5,415.9L562.5,415.9z M577.8,410.9c4.1,0,5.5-0.9,7.4-2.5c2.1-2.1,3.3-5.3,3.3-8.7c0-3.4-1.1-6.4-3.1-8.5
			c-1.8-1.7-3.6-2.7-7.6-2.7h-9.7V411L577.8,410.9L577.8,410.9z"/>
		<path d="M652.2,410.1c-3.5,3.5-8.9,6.8-16,6.8c-10.7,0-17.7-7.7-17.7-17.3c0-9.4,7.1-17.2,17.4-17.2c5.9,0,11.5,2.3,15.2,5.7
			l-3.8,3.7c-2.9-2.7-7.3-4.5-11.3-4.5c-7.1,0-11.7,5.6-11.7,12.3c0,6.8,4.7,12.2,11.9,12.2c5.1,0,9.4-2.5,12.1-5.5L652.2,410.1z"/>
		<path d="M668.9,383.4v27.5h19.9v5h-25.4v-32.5H668.9z"/>
		<path d="M713.9,382.4c10.2,0,18.3,7.7,18.3,17.2c0,9.6-8.1,17.3-18.3,17.3s-18.2-7.7-18.2-17.3
			C695.7,390.1,703.7,382.4,713.9,382.4z M713.9,411.9c7,0,12.5-5.6,12.5-12.3c0-6.7-5.5-12.2-12.5-12.2c-6.9,0-12.3,5.5-12.3,12.2
			C701.6,406.3,707,411.9,713.9,411.9z"/>
		<path d="M772.2,383.4v20.9c0,8-6.1,12.5-14.4,12.5c-8.2,0-14.3-4.5-14.3-12.5v-20.9h5.6v20.9c0,4.9,3.9,7.6,8.8,7.6
			c5,0,8.8-2.7,8.8-7.6v-20.9H772.2z"/>
		<path d="M786.5,415.9v-32.5H802c5.8,0,9.1,1.6,11.9,4.3c2.9,3,4.4,7.2,4.4,11.9c0,4.9-1.7,9.3-4.8,12.3c-2.8,2.5-5.7,4-11.5,4
			L786.5,415.9L786.5,415.9z M801.7,410.9c4.1,0,5.5-0.9,7.4-2.5c2.1-2.1,3.3-5.3,3.3-8.7c0-3.4-1.1-6.4-3.1-8.5
			c-1.8-1.7-3.6-2.7-7.6-2.7H792V411L801.7,410.9L801.7,410.9z"/>
		<path d="M868.2,391c-1.8-1.6-5.8-3.8-11.7-3.8c-3.9,0-7.3,1.2-7.3,4.7s4.8,3.7,9.7,4c5.8,0.4,14.9,1,14.9,10
			c0,7.9-6.5,10.9-14.3,10.9c-8.5,0-14.1-3.5-17.7-6.8l3.4-3.9c2.6,2.4,7.2,5.9,14.4,5.9c4.8,0,8.6-1.6,8.6-5.3
			c0-4.1-3.7-4.9-9.4-5.4c-7.1-0.5-15.3-1.1-15.3-8.9c0-7.7,7.1-10,13-10c6.8,0,12.3,2.7,14.9,4.7L868.2,391z"/>
		<path d="M903.5,401.4H891v9.5h21.9v5h-27.5v-32.5h26.3v5H891v8.1h12.4L903.5,401.4L903.5,401.4z"/>
		<path d="M924.5,415.9v-32.5h17.8c4.3,0,7.3,1.2,9.4,3.4c1.6,1.7,2.6,4,2.6,6.5c0,4.4-2.9,7.7-7.1,9.3l7.7,13.2h-6.4l-6.9-12.5
			h-11.5v12.5L924.5,415.9L924.5,415.9z M930.1,388.4v10h13.3c2.9,0,5.4-2.3,5.4-5.1c0-1.2-0.5-2.3-1.3-3.2
			c-1.5-1.6-3.3-1.7-5.1-1.7L930.1,388.4L930.1,388.4z"/>
		<path d="M997.6,383.4l-15,32.5h-5.1l-15-32.5h6.3l11.2,25.4h0.3l11.2-25.4H997.6z"/>
		<path d="M1008,415.9v-32.5h5.6v32.5H1008z"/>
		<path d="M1059.2,410.1c-3.5,3.5-8.9,6.8-16,6.8c-10.7,0-17.7-7.7-17.7-17.3c0-9.4,7.1-17.2,17.4-17.2c5.9,0,11.5,2.3,15.2,5.7
			l-3.8,3.7c-2.9-2.7-7.3-4.5-11.3-4.5c-7.1,0-11.7,5.6-11.7,12.3c0,6.8,4.7,12.2,11.9,12.2c5.1,0,9.4-2.5,12.1-5.5L1059.2,410.1z"
			/>
		<path d="M1088.2,401.4h-12.4v9.5h21.9v5h-27.5v-32.5h26.3v5h-20.7v8.1h12.4L1088.2,401.4L1088.2,401.4z"/>
		<path d="M1132.2,391c-1.8-1.6-5.8-3.8-11.7-3.8c-3.9,0-7.3,1.2-7.3,4.7s4.8,3.7,9.7,4c5.8,0.4,14.9,1,14.9,10
			c0,7.9-6.5,10.9-14.3,10.9c-8.5,0-14.1-3.5-17.7-6.8l3.4-3.9c2.6,2.4,7.2,5.9,14.4,5.9c4.8,0,8.6-1.6,8.6-5.3
			c0-4.1-3.7-4.9-9.4-5.4c-7.1-0.5-15.3-1.1-15.3-8.9c0-7.7,7.1-10,13-10c6.8,0,12.3,2.7,14.9,4.7L1132.2,391z"/>
	</g>
	<g class="st8">
		<path d="M170.3,145.2c8.4-0.7,16.9-1,25.4-0.7c12,0.5,24,2.4,35.2,6.9c6.2,2.7,12.5,5.3,18.2,8.9c19.1,11.7,33.6,30,42.9,50.5
			c17.6-1.5,35.9,2.4,51,12c6,3.7,11.2,8.5,15.9,13.8c11,11.5,16.8,27.5,17.8,43.3c0.5,7.3,0,14.7-1.5,21.9
			c-3.3,15.9-12.1,30.3-23.9,41.2c-13.1,12-29.9,19.9-47.6,21.3c1-9.4,2.6-18.8,4.6-28.1c7.3-3,14.7-5.9,21.2-10.5
			c3.5-2.4,6.7-5.3,9.2-8.8c1.8-2.6,3.7-5.3,5.1-8.1c6.7-13.3,7.5-29.7,1.6-43.5c-3.1-7.3-8.3-13.7-14.9-18
			c-6.6-4.9-14.6-7.4-22.7-8.2c-12.3-1.3-24.6,0.7-37,0.6c-2.7-11.9-6.6-23.6-13.1-33.9c-3.6-5.6-7.9-10.8-13.1-15
			c-4.7-3.8-9.7-7.3-15.2-9.9c-15.3-7.5-32.8-9.3-49.6-8.1c-24.3-0.3-47.8,15-58.4,37.1c-2.7,5.7-4.5,11.8-5.3,18
			c-0.6,10.6-1.4,21.5,1.3,31.9c1.8,6.9,4.7,13.5,8.7,19.4c8.7,12.6,21.8,21.6,35.9,27.2c1.7-1.1,3.2-2.5,5-3.4
			c10.7-6.4,24.9-5.9,35.1,1.3c7.6,5.2,12.9,14,13.4,23.3c0.8,9.9-3.6,19.9-11.2,26c-8.2,6.9-19.8,9.1-30,6.1
			c-10.1-2.8-18.6-11-21.6-21.2c-0.7-2.3-1-4.7-1.3-7.1c-5.4-2.6-11.1-4.7-16.3-7.8c-10.1-5.8-19.2-13.5-26.7-22.5
			c-9.7-11.8-16.7-26.1-19.3-41.3c-1.2-6.4-1.2-12.9-1.4-19.4c0-11.1,1-22.3,4.8-32.8c2.3-6.1,5-12.1,8.4-17.7
			C116,165.5,142.3,148.8,170.3,145.2z M180,318.2c-4.6,1.2-8.2,5.8-8.1,10.6c-0.1,3.7,1.8,7.3,4.7,9.4c3.7,2.7,8.9,2.8,12.7,0.2
			c2.7-1.7,4.6-4.8,5-8c0.6-4.1-1.4-8.3-4.7-10.6C186.8,317.8,183.2,317.3,180,318.2z"/>
	</g>
	<g class="st8">
		<g>
			<g>
				<path d="M12.4,257.6c12.2-25.4,38.1-43.6,65.9-45.9c-1.1,9.4-2.7,18.8-4.7,28.1c-7.1,2.9-14.3,5.8-20.7,10.1
					c-4.3,2.9-8.2,6.6-11,11c-7.2,9.9-10.3,22.5-9.2,34.7c0.8,8.7,3.8,17.3,9.1,24.2c3.7,4.9,8.7,8.6,14,11.7c9.1,5,19.7,6,29.8,5.7
					c8.5-0.1,17-1.1,25.5-1c3,13.6,7.8,27,16.1,38.3c3.9,5.2,8.4,9.8,13.7,13.5c9.2,7.1,20.1,11.6,31.4,13.7
					c8.4,1.7,16.9,2.1,25.4,1.8c3.1-0.3,6.2-0.2,9.2-0.4c16.5-1.2,32.3-9.5,43.4-21.9c8.8-9.9,14.9-22.6,15.6-36.1
					c0.4-8.6,0.9-17.3-0.8-25.9c-1.9-9.3-5.8-18.1-11.6-25.6c-8.3-10.6-19.8-18.4-32-23.5c-3.6,2.5-7.6,4.6-11.9,5.6
					c-11.8,3-25.1-1.1-32.9-10.7c-3.9-4.7-6.4-10.7-7-16.9c-0.6-6.9,1.1-14,4.9-19.7c6.3-9.7,18-15.2,29.3-14.3
					c6.9,0.4,13.6,3.1,18.8,7.7c6.9,5.8,11.1,14.9,10.9,24c3.4,1.7,7,3.1,10.3,4.9c18,9.6,33,25,41.7,43.7
					c4.1,8.8,6.8,18.3,7.7,28.1c0.5,7.4,0.7,14.8,0.2,22.3c-0.5,9.5-2.4,19.1-6.2,27.8c-8.4,21.2-25.1,38.5-45.2,48.6
					c-11.9,5.9-25,9.7-38.3,10c-8.9,0.4-17.8,0.5-26.6-0.4c-10.7-1.1-21.4-3.7-31.1-8.4c-20.2-8.2-37-23.8-48.4-42.4
					c-3-4.8-5.6-9.8-7.9-14.9c-19.1,1.5-38.9-3.1-54.6-14.5c-4.2-3.1-8.1-6.6-11.5-10.5c-11.2-11.2-17.2-26.8-18.4-42.5
					C4.2,284.1,6.3,270,12.4,257.6z M199.9,233.8c-3.3,0.4-6.3,2.3-8,5.1c-2,3.1-2.3,7.3-0.7,10.7c1.4,3.2,4.4,5.6,7.7,6.3
					c3.2,0.8,6.7,0,9.4-2c2.7-2.1,4.5-5.5,4.3-9c0.1-3.1-1.3-6.1-3.6-8.2C206.6,234.4,203.1,233.3,199.9,233.8z"/>
			</g>
		</g>
	</g>
</g>
</svg>
